<mxfile host="Electron" agent="Mozilla/5.0 (X11; Linux x86_64) AppleWebKit/537.36 (KHTML, like Gecko) draw.io/24.7.8 Chrome/128.0.6613.36 Electron/32.0.1 Safari/537.36" version="24.7.8">
  <diagram name="Page-1" id="90a13364-a465-7bf4-72fc-28e22215d7a0">
    <mxGraphModel dx="1785" dy="1109" grid="1" gridSize="10" guides="1" tooltips="1" connect="1" arrows="1" fold="1" page="1" pageScale="1.5" pageWidth="650" pageHeight="460" background="none" math="0" shadow="0">
      <root>
        <mxCell id="0" style=";html=1;" />
        <mxCell id="1" style=";html=1;" parent="0" />
        <mxCell id="RBv-ePs52zasYLE-lzvq-28" value="" style="whiteSpace=wrap;html=1;shadow=1;fontSize=18;fillColor=#d5e8d4;strokeColor=#82b366;align=left;" parent="1" vertex="1">
          <mxGeometry x="72" y="44" width="870" height="616" as="geometry" />
        </mxCell>
        <mxCell id="3a17f1ce550125da-2" value="" style="whiteSpace=wrap;html=1;shadow=1;fontSize=18;fillColor=#b1ddf0;strokeColor=#10739e;" parent="1" vertex="1">
          <mxGeometry x="559" y="88" width="213" height="370" as="geometry" />
        </mxCell>
        <mxCell id="3a17f1ce550125da-20" style="edgeStyle=elbowEdgeStyle;rounded=0;html=1;startArrow=none;startFill=0;jettySize=auto;orthogonalLoop=1;fontSize=18;elbow=vertical;exitX=1;exitY=0.288;exitDx=0;exitDy=0;exitPerimeter=0;" parent="1" edge="1">
          <mxGeometry relative="1" as="geometry">
            <Array as="points">
              <mxPoint x="529" y="132" />
            </Array>
            <mxPoint x="420" y="132.03999999999996" as="sourcePoint" />
            <mxPoint x="559" y="132" as="targetPoint" />
          </mxGeometry>
        </mxCell>
        <mxCell id="RBv-ePs52zasYLE-lzvq-1" value="&lt;div style=&quot;font-size: 12px;&quot;&gt;&lt;font style=&quot;font-size: 12px;&quot;&gt;DC-DC&lt;/font&gt;&lt;/div&gt;&lt;div style=&quot;font-size: 12px;&quot;&gt;&lt;font style=&quot;font-size: 12px;&quot;&gt;&lt;font style=&quot;font-size: 12px;&quot;&gt;Module&lt;/font&gt;&lt;font style=&quot;font-size: 12px;&quot;&gt;&lt;br&gt;&lt;/font&gt;&lt;/font&gt;&lt;/div&gt;" style="whiteSpace=wrap;html=1;shadow=1;fontSize=18;fillColor=#bac8d3;strokeColor=#23445d;" parent="1" vertex="1">
          <mxGeometry x="533" y="540" width="64" height="50" as="geometry" />
        </mxCell>
        <mxCell id="RBv-ePs52zasYLE-lzvq-2" value="" style="endArrow=classic;html=1;rounded=0;exitX=0.5;exitY=0;exitDx=0;exitDy=0;fillColor=#f8cecc;strokeColor=#FF0000;strokeWidth=2;" parent="1" source="RBv-ePs52zasYLE-lzvq-1" edge="1">
          <mxGeometry width="50" height="50" relative="1" as="geometry">
            <mxPoint x="551" y="144" as="sourcePoint" />
            <mxPoint x="564" y="459" as="targetPoint" />
          </mxGeometry>
        </mxCell>
        <mxCell id="RBv-ePs52zasYLE-lzvq-3" value="&lt;div&gt;Core Voltage&lt;/div&gt;&lt;div&gt;1.2V&lt;/div&gt;" style="text;html=1;align=center;verticalAlign=middle;whiteSpace=wrap;rounded=0;fontColor=#FF0000;" parent="1" vertex="1">
          <mxGeometry x="474" y="518" width="80" height="35" as="geometry" />
        </mxCell>
        <mxCell id="RBv-ePs52zasYLE-lzvq-5" value="&lt;div&gt;IO Voltage&lt;/div&gt;&lt;div&gt;3.3V&lt;br&gt;&lt;/div&gt;" style="text;html=1;align=center;verticalAlign=middle;whiteSpace=wrap;rounded=0;fontColor=#FF0000;" parent="1" vertex="1">
          <mxGeometry x="662" y="523" width="60" height="30" as="geometry" />
        </mxCell>
        <mxCell id="RBv-ePs52zasYLE-lzvq-8" value="CLK" style="text;html=1;align=center;verticalAlign=middle;whiteSpace=wrap;rounded=0;" parent="1" vertex="1">
          <mxGeometry x="558" y="118" width="35" height="30" as="geometry" />
        </mxCell>
        <mxCell id="RBv-ePs52zasYLE-lzvq-10" style="edgeStyle=elbowEdgeStyle;rounded=0;html=1;startArrow=none;startFill=0;jettySize=auto;orthogonalLoop=1;fontSize=18;elbow=vertical;exitX=1;exitY=0.156;exitDx=0;exitDy=0;exitPerimeter=0;" parent="1" edge="1">
          <mxGeometry relative="1" as="geometry">
            <Array as="points">
              <mxPoint x="529" y="110" />
            </Array>
            <mxPoint x="420" y="93.48000000000002" as="sourcePoint" />
            <mxPoint x="559" y="110" as="targetPoint" />
          </mxGeometry>
        </mxCell>
        <mxCell id="RBv-ePs52zasYLE-lzvq-11" value="~RESET" style="text;html=1;align=center;verticalAlign=middle;whiteSpace=wrap;rounded=0;" parent="1" vertex="1">
          <mxGeometry x="558" y="94" width="58" height="30" as="geometry" />
        </mxCell>
        <mxCell id="RBv-ePs52zasYLE-lzvq-13" value="BOOT_SELECT" style="text;html=1;align=center;verticalAlign=middle;whiteSpace=wrap;rounded=0;" parent="1" vertex="1">
          <mxGeometry x="563" y="143" width="90" height="30" as="geometry" />
        </mxCell>
        <mxCell id="RBv-ePs52zasYLE-lzvq-17" value="UART0" style="text;html=1;align=center;verticalAlign=middle;whiteSpace=wrap;rounded=0;fontColor=#000000;" parent="1" vertex="1">
          <mxGeometry x="558" y="185" width="51" height="30" as="geometry" />
        </mxCell>
        <mxCell id="RBv-ePs52zasYLE-lzvq-19" value="&lt;font style=&quot;font-size: 12px;&quot;&gt;USB Connector&lt;/font&gt;" style="whiteSpace=wrap;html=1;shadow=1;fontSize=18;fillColor=#b1ddf0;strokeColor=#10739e;" parent="1" vertex="1">
          <mxGeometry x="289" y="38" width="64" height="50" as="geometry" />
        </mxCell>
        <mxCell id="RBv-ePs52zasYLE-lzvq-20" value="" style="endArrow=classic;html=1;rounded=0;exitX=0.438;exitY=0.18;exitDx=0;exitDy=0;fillColor=#f8cecc;strokeColor=#FF0000;strokeWidth=2;exitPerimeter=0;" parent="1" edge="1" source="RBv-ePs52zasYLE-lzvq-18">
          <mxGeometry width="50" height="50" relative="1" as="geometry">
            <mxPoint x="637" y="502" as="sourcePoint" />
            <mxPoint x="637" y="459" as="targetPoint" />
          </mxGeometry>
        </mxCell>
        <mxCell id="RBv-ePs52zasYLE-lzvq-21" style="edgeStyle=elbowEdgeStyle;rounded=0;html=1;startArrow=none;startFill=0;jettySize=auto;orthogonalLoop=1;fontSize=18;elbow=vertical;" parent="1" edge="1">
          <mxGeometry relative="1" as="geometry">
            <Array as="points">
              <mxPoint x="529" y="158" />
            </Array>
            <mxPoint x="421" y="158" as="sourcePoint" />
            <mxPoint x="559" y="158" as="targetPoint" />
          </mxGeometry>
        </mxCell>
        <mxCell id="RBv-ePs52zasYLE-lzvq-22" value="" style="endArrow=classic;html=1;rounded=0;exitX=0.312;exitY=1.016;exitDx=0;exitDy=0;exitPerimeter=0;fillColor=#f8cecc;strokeColor=#FF0000;strokeWidth=2;" parent="1" edge="1">
          <mxGeometry width="50" height="50" relative="1" as="geometry">
            <mxPoint x="323.3120000000001" y="458.03999999999996" as="sourcePoint" />
            <mxPoint x="562" y="590" as="targetPoint" />
            <Array as="points">
              <mxPoint x="320" y="630" />
              <mxPoint x="562" y="630" />
            </Array>
          </mxGeometry>
        </mxCell>
        <mxCell id="RBv-ePs52zasYLE-lzvq-24" value="" style="endArrow=classic;html=1;rounded=0;exitX=0.312;exitY=1.016;exitDx=0;exitDy=0;exitPerimeter=0;fillColor=#f8cecc;strokeColor=#FF0000;strokeWidth=2;" parent="1" edge="1">
          <mxGeometry width="50" height="50" relative="1" as="geometry">
            <mxPoint x="323.3120000000001" y="458.03999999999996" as="sourcePoint" />
            <mxPoint x="638" y="590" as="targetPoint" />
            <Array as="points">
              <mxPoint x="322" y="630" />
              <mxPoint x="638" y="630" />
            </Array>
          </mxGeometry>
        </mxCell>
        <mxCell id="RBv-ePs52zasYLE-lzvq-25" value="&lt;div&gt;5V (&lt;span style=&quot;background-color: initial;&quot;&gt;USB&amp;nbsp;&lt;/span&gt;&lt;span style=&quot;background-color: initial;&quot;&gt;VBUS)&lt;/span&gt;&lt;/div&gt;" style="text;html=1;align=center;verticalAlign=middle;whiteSpace=wrap;rounded=0;fontColor=#FF0000;" parent="1" vertex="1">
          <mxGeometry x="328" y="459" width="95" height="39" as="geometry" />
        </mxCell>
        <mxCell id="RBv-ePs52zasYLE-lzvq-7" value="" style="whiteSpace=wrap;html=1;shadow=1;fontSize=18;fillColor=#b0e3e6;strokeColor=#0e8088;" parent="1" vertex="1">
          <mxGeometry x="232" y="88" width="188" height="370" as="geometry" />
        </mxCell>
        <mxCell id="RBv-ePs52zasYLE-lzvq-31" value="GPIO15" style="text;html=1;align=center;verticalAlign=middle;whiteSpace=wrap;rounded=0;" parent="1" vertex="1">
          <mxGeometry x="365" y="95" width="58" height="30" as="geometry" />
        </mxCell>
        <mxCell id="RBv-ePs52zasYLE-lzvq-32" value="GPCLK GPIO21" style="text;html=1;align=center;verticalAlign=middle;whiteSpace=wrap;rounded=0;" parent="1" vertex="1">
          <mxGeometry x="318" y="118" width="108" height="30" as="geometry" />
        </mxCell>
        <mxCell id="RBv-ePs52zasYLE-lzvq-33" value="GPIO20" style="text;html=1;align=center;verticalAlign=middle;whiteSpace=wrap;rounded=0;" parent="1" vertex="1">
          <mxGeometry x="366" y="143" width="58" height="30" as="geometry" />
        </mxCell>
        <mxCell id="RBv-ePs52zasYLE-lzvq-34" value="&lt;font style=&quot;font-size: 32px;&quot; data-font-src=&quot;https://fonts.googleapis.com/css?family=Audiowide&quot; face=&quot;Audiowide&quot;&gt;AtiVEGA&lt;/font&gt;" style="text;html=1;align=center;verticalAlign=middle;whiteSpace=wrap;rounded=0;fontColor=#000000;fontSize=27;" parent="1" vertex="1">
          <mxGeometry x="789" y="14" width="144" height="30" as="geometry" />
        </mxCell>
        <mxCell id="OlUzO2p-UMLcqqp3qhSS-1" value="&lt;font style=&quot;font-size: 12px;&quot;&gt;J8&lt;/font&gt;" style="whiteSpace=wrap;html=1;shadow=1;fontSize=18;fillColor=#bac8d3;strokeColor=#23445d;" parent="1" vertex="1">
          <mxGeometry x="120" y="175" width="46" height="41" as="geometry" />
        </mxCell>
        <mxCell id="OlUzO2p-UMLcqqp3qhSS-2" value="" style="endArrow=classic;startArrow=classic;html=1;rounded=0;entryX=-0.011;entryY=0.366;entryDx=0;entryDy=0;entryPerimeter=0;" parent="1" edge="1">
          <mxGeometry width="50" height="50" relative="1" as="geometry">
            <mxPoint x="422" y="248" as="sourcePoint" />
            <mxPoint x="557.0639999999999" y="247.0400000000002" as="targetPoint" />
          </mxGeometry>
        </mxCell>
        <mxCell id="OlUzO2p-UMLcqqp3qhSS-3" value="GPIO&lt;span style=&quot;background-color: initial;&quot;&gt;16&lt;/span&gt;" style="text;html=1;align=center;verticalAlign=middle;whiteSpace=wrap;rounded=0;" parent="1" vertex="1">
          <mxGeometry x="563" y="232" width="49" height="30" as="geometry" />
        </mxCell>
        <mxCell id="OlUzO2p-UMLcqqp3qhSS-6" value="GPIO0" style="text;html=1;align=center;verticalAlign=middle;whiteSpace=wrap;rounded=0;" parent="1" vertex="1">
          <mxGeometry x="560" y="252" width="48" height="30" as="geometry" />
        </mxCell>
        <mxCell id="OlUzO2p-UMLcqqp3qhSS-7" value="" style="endArrow=classic;startArrow=classic;html=1;rounded=0;entryX=0.009;entryY=0.568;entryDx=0;entryDy=0;entryPerimeter=0;exitX=0.993;exitY=0.773;exitDx=0;exitDy=0;exitPerimeter=0;" parent="1" edge="1">
          <mxGeometry width="50" height="50" relative="1" as="geometry">
            <mxPoint x="419.11799999999994" y="304.0899999999999" as="sourcePoint" />
            <mxPoint x="560.5840000000001" y="302.9200000000001" as="targetPoint" />
          </mxGeometry>
        </mxCell>
        <mxCell id="OlUzO2p-UMLcqqp3qhSS-8" value="PWM7" style="text;html=1;align=center;verticalAlign=middle;whiteSpace=wrap;rounded=0;" parent="1" vertex="1">
          <mxGeometry x="559" y="288" width="48" height="30" as="geometry" />
        </mxCell>
        <mxCell id="OlUzO2p-UMLcqqp3qhSS-9" value="&lt;font style=&quot;font-size: 18px;&quot;&gt;THEJAS32&lt;/font&gt;" style="text;html=1;align=center;verticalAlign=middle;whiteSpace=wrap;rounded=0;fontStyle=1;fontColor=#000000;" parent="1" vertex="1">
          <mxGeometry x="560" y="427" width="104" height="30" as="geometry" />
        </mxCell>
        <mxCell id="OlUzO2p-UMLcqqp3qhSS-10" value="" style="endArrow=classic;startArrow=classic;html=1;rounded=0;entryX=0.009;entryY=0.568;entryDx=0;entryDy=0;entryPerimeter=0;exitX=0.993;exitY=0.773;exitDx=0;exitDy=0;exitPerimeter=0;" parent="1" edge="1">
          <mxGeometry width="50" height="50" relative="1" as="geometry">
            <mxPoint x="420.11799999999994" y="347.0899999999999" as="sourcePoint" />
            <mxPoint x="561.5840000000001" y="345.9200000000001" as="targetPoint" />
          </mxGeometry>
        </mxCell>
        <mxCell id="OlUzO2p-UMLcqqp3qhSS-11" value="SPI1" style="text;html=1;align=center;verticalAlign=middle;whiteSpace=wrap;rounded=0;" parent="1" vertex="1">
          <mxGeometry x="556" y="331" width="48" height="30" as="geometry" />
        </mxCell>
        <mxCell id="OlUzO2p-UMLcqqp3qhSS-12" value="GPIO[16-19]" style="text;html=1;align=center;verticalAlign=middle;whiteSpace=wrap;rounded=0;" parent="1" vertex="1">
          <mxGeometry x="342" y="332" width="83" height="30" as="geometry" />
        </mxCell>
        <mxCell id="OlUzO2p-UMLcqqp3qhSS-13" value="" style="endArrow=classic;startArrow=classic;html=1;rounded=0;entryX=0.009;entryY=0.568;entryDx=0;entryDy=0;entryPerimeter=0;exitX=0.993;exitY=0.773;exitDx=0;exitDy=0;exitPerimeter=0;" parent="1" edge="1">
          <mxGeometry width="50" height="50" relative="1" as="geometry">
            <mxPoint x="419.11799999999994" y="400.0899999999999" as="sourcePoint" />
            <mxPoint x="560.5840000000001" y="398.9200000000001" as="targetPoint" />
          </mxGeometry>
        </mxCell>
        <mxCell id="OlUzO2p-UMLcqqp3qhSS-14" value="I2C0" style="text;html=1;align=center;verticalAlign=middle;whiteSpace=wrap;rounded=0;" parent="1" vertex="1">
          <mxGeometry x="555" y="384" width="48" height="30" as="geometry" />
        </mxCell>
        <mxCell id="OlUzO2p-UMLcqqp3qhSS-15" value="GPIO[26,27]" style="text;html=1;align=center;verticalAlign=middle;whiteSpace=wrap;rounded=0;" parent="1" vertex="1">
          <mxGeometry x="341" y="385" width="83" height="30" as="geometry" />
        </mxCell>
        <mxCell id="OlUzO2p-UMLcqqp3qhSS-16" value="GPIO[4,5]" style="text;html=1;align=center;verticalAlign=middle;whiteSpace=wrap;rounded=0;fontColor=#000000;" parent="1" vertex="1">
          <mxGeometry x="364" y="186" width="53" height="30" as="geometry" />
        </mxCell>
        <mxCell id="OlUzO2p-UMLcqqp3qhSS-18" value="&lt;font style=&quot;font-size: 18px;&quot;&gt;RPi Pico&lt;/font&gt;" style="text;html=1;align=center;verticalAlign=middle;whiteSpace=wrap;rounded=0;fontStyle=1;fontColor=#000000;" parent="1" vertex="1">
          <mxGeometry x="331" y="428" width="89" height="30" as="geometry" />
        </mxCell>
        <mxCell id="OlUzO2p-UMLcqqp3qhSS-19" value="GPIO2" style="text;html=1;align=center;verticalAlign=middle;whiteSpace=wrap;rounded=0;" parent="1" vertex="1">
          <mxGeometry x="368" y="233" width="58" height="30" as="geometry" />
        </mxCell>
        <mxCell id="OlUzO2p-UMLcqqp3qhSS-20" value="GPIO3" style="text;html=1;align=center;verticalAlign=middle;whiteSpace=wrap;rounded=0;" parent="1" vertex="1">
          <mxGeometry x="368" y="254" width="58" height="30" as="geometry" />
        </mxCell>
        <mxCell id="OlUzO2p-UMLcqqp3qhSS-21" value="GPIO14" style="text;html=1;align=center;verticalAlign=middle;whiteSpace=wrap;rounded=0;" parent="1" vertex="1">
          <mxGeometry x="365" y="289" width="58" height="30" as="geometry" />
        </mxCell>
        <mxCell id="OlUzO2p-UMLcqqp3qhSS-22" value="" style="endArrow=classic;startArrow=classic;html=1;rounded=0;entryX=-0.011;entryY=0.366;entryDx=0;entryDy=0;entryPerimeter=0;exitX=1;exitY=0.5;exitDx=0;exitDy=0;" parent="1" source="OlUzO2p-UMLcqqp3qhSS-1" edge="1">
          <mxGeometry width="50" height="50" relative="1" as="geometry">
            <mxPoint x="191" y="196" as="sourcePoint" />
            <mxPoint x="231.06399999999985" y="195.0400000000002" as="targetPoint" />
          </mxGeometry>
        </mxCell>
        <mxCell id="OlUzO2p-UMLcqqp3qhSS-23" value="GPIO[0,1]" style="text;html=1;align=center;verticalAlign=middle;whiteSpace=wrap;rounded=0;" parent="1" vertex="1">
          <mxGeometry x="232" y="180" width="58" height="30" as="geometry" />
        </mxCell>
        <mxCell id="OlUzO2p-UMLcqqp3qhSS-24" value="DEBUG&lt;div&gt;UART&lt;/div&gt;" style="text;html=1;align=center;verticalAlign=middle;whiteSpace=wrap;rounded=0;fontColor=#000000;" parent="1" vertex="1">
          <mxGeometry x="170" y="163" width="60" height="30" as="geometry" />
        </mxCell>
        <mxCell id="OlUzO2p-UMLcqqp3qhSS-25" value="&lt;font style=&quot;font-size: 12px;&quot;&gt;J6&lt;/font&gt;" style="whiteSpace=wrap;html=1;shadow=1;fontSize=18;fillColor=#bac8d3;strokeColor=#23445d;" parent="1" vertex="1">
          <mxGeometry x="120" y="248" width="46" height="41" as="geometry" />
        </mxCell>
        <mxCell id="OlUzO2p-UMLcqqp3qhSS-26" value="" style="endArrow=classic;startArrow=classic;html=1;rounded=0;entryX=-0.011;entryY=0.366;entryDx=0;entryDy=0;entryPerimeter=0;exitX=1;exitY=0.5;exitDx=0;exitDy=0;" parent="1" source="OlUzO2p-UMLcqqp3qhSS-25" edge="1">
          <mxGeometry width="50" height="50" relative="1" as="geometry">
            <mxPoint x="191" y="269" as="sourcePoint" />
            <mxPoint x="231.06399999999985" y="268.0400000000002" as="targetPoint" />
          </mxGeometry>
        </mxCell>
        <mxCell id="OlUzO2p-UMLcqqp3qhSS-27" value="GPIO[6-13]" style="text;html=1;align=center;verticalAlign=middle;whiteSpace=wrap;rounded=0;" parent="1" vertex="1">
          <mxGeometry x="232" y="254" width="70" height="30" as="geometry" />
        </mxCell>
        <mxCell id="OlUzO2p-UMLcqqp3qhSS-28" value="GPIOs" style="text;html=1;align=center;verticalAlign=middle;whiteSpace=wrap;rounded=0;fontColor=#000000;" parent="1" vertex="1">
          <mxGeometry x="173" y="249" width="52" height="15" as="geometry" />
        </mxCell>
        <mxCell id="OlUzO2p-UMLcqqp3qhSS-29" value="&lt;font style=&quot;font-size: 12px;&quot;&gt;J1&lt;/font&gt;" style="whiteSpace=wrap;html=1;shadow=1;fontSize=18;fillColor=#bac8d3;strokeColor=#23445d;" parent="1" vertex="1">
          <mxGeometry x="120" y="323" width="46" height="41" as="geometry" />
        </mxCell>
        <mxCell id="OlUzO2p-UMLcqqp3qhSS-30" value="" style="endArrow=classic;startArrow=classic;html=1;rounded=0;entryX=-0.011;entryY=0.366;entryDx=0;entryDy=0;entryPerimeter=0;exitX=1;exitY=0.5;exitDx=0;exitDy=0;" parent="1" source="OlUzO2p-UMLcqqp3qhSS-29" edge="1">
          <mxGeometry width="50" height="50" relative="1" as="geometry">
            <mxPoint x="191" y="344" as="sourcePoint" />
            <mxPoint x="231.06399999999985" y="343.0400000000002" as="targetPoint" />
          </mxGeometry>
        </mxCell>
        <mxCell id="OlUzO2p-UMLcqqp3qhSS-31" value="GPIO[22,28]&lt;div&gt;RUN&lt;/div&gt;" style="text;html=1;align=center;verticalAlign=middle;whiteSpace=wrap;rounded=0;" parent="1" vertex="1">
          <mxGeometry x="232" y="329" width="70" height="30" as="geometry" />
        </mxCell>
        <mxCell id="OlUzO2p-UMLcqqp3qhSS-32" value="GPIO&lt;div&gt;ADC&lt;/div&gt;" style="text;html=1;align=center;verticalAlign=middle;whiteSpace=wrap;rounded=0;fontColor=#000000;" parent="1" vertex="1">
          <mxGeometry x="170" y="314" width="60" height="30" as="geometry" />
        </mxCell>
        <mxCell id="OlUzO2p-UMLcqqp3qhSS-33" value="&lt;font style=&quot;font-size: 25px;&quot;&gt;v1.0&lt;/font&gt;" style="text;html=1;align=center;verticalAlign=middle;whiteSpace=wrap;rounded=0;fontColor=#000000;fontSize=27;" parent="1" vertex="1">
          <mxGeometry x="880" y="50" width="64" height="30" as="geometry" />
        </mxCell>
        <mxCell id="OlUzO2p-UMLcqqp3qhSS-34" value="&lt;font style=&quot;font-size: 12px;&quot;&gt;J12&lt;/font&gt;" style="whiteSpace=wrap;html=1;shadow=1;fontSize=18;fillColor=#bac8d3;strokeColor=#23445d;" parent="1" vertex="1">
          <mxGeometry x="842" y="103" width="46" height="41" as="geometry" />
        </mxCell>
        <mxCell id="OlUzO2p-UMLcqqp3qhSS-36" value="" style="endArrow=classic;startArrow=classic;html=1;rounded=0;entryX=-0.011;entryY=0.366;entryDx=0;entryDy=0;entryPerimeter=0;exitX=1;exitY=0.5;exitDx=0;exitDy=0;" parent="1" edge="1">
          <mxGeometry width="50" height="50" relative="1" as="geometry">
            <mxPoint x="774" y="126" as="sourcePoint" />
            <mxPoint x="839.0639999999999" y="125.04000000000019" as="targetPoint" />
          </mxGeometry>
        </mxCell>
        <mxCell id="OlUzO2p-UMLcqqp3qhSS-37" value="I2C2&lt;div&gt;SPI2&lt;/div&gt;&lt;div&gt;UART2&lt;/div&gt;&lt;div&gt;Various GPIOs&lt;/div&gt;&lt;div&gt;PWM&lt;/div&gt;" style="text;html=1;align=right;verticalAlign=middle;whiteSpace=wrap;rounded=0;" parent="1" vertex="1">
          <mxGeometry x="672" y="83" width="94" height="90" as="geometry" />
        </mxCell>
        <mxCell id="OlUzO2p-UMLcqqp3qhSS-39" value="&lt;font style=&quot;font-size: 12px;&quot;&gt;J10&lt;/font&gt;" style="whiteSpace=wrap;html=1;shadow=1;fontSize=18;fillColor=#bac8d3;strokeColor=#23445d;" parent="1" vertex="1">
          <mxGeometry x="841" y="166" width="46" height="41" as="geometry" />
        </mxCell>
        <mxCell id="OlUzO2p-UMLcqqp3qhSS-40" value="" style="endArrow=classic;startArrow=classic;html=1;rounded=0;entryX=-0.011;entryY=0.366;entryDx=0;entryDy=0;entryPerimeter=0;exitX=1;exitY=0.5;exitDx=0;exitDy=0;" parent="1" edge="1">
          <mxGeometry width="50" height="50" relative="1" as="geometry">
            <mxPoint x="773" y="189" as="sourcePoint" />
            <mxPoint x="838.0639999999999" y="188.0400000000002" as="targetPoint" />
          </mxGeometry>
        </mxCell>
        <mxCell id="OlUzO2p-UMLcqqp3qhSS-41" value="GPIO[17-30]" style="text;html=1;align=center;verticalAlign=middle;whiteSpace=wrap;rounded=0;" parent="1" vertex="1">
          <mxGeometry x="695" y="181" width="76" height="18" as="geometry" />
        </mxCell>
        <mxCell id="OlUzO2p-UMLcqqp3qhSS-42" value="&lt;font style=&quot;font-size: 12px;&quot;&gt;J4&lt;/font&gt;" style="whiteSpace=wrap;html=1;shadow=1;fontSize=18;fillColor=#bac8d3;strokeColor=#23445d;" parent="1" vertex="1">
          <mxGeometry x="841" y="223" width="46" height="41" as="geometry" />
        </mxCell>
        <mxCell id="OlUzO2p-UMLcqqp3qhSS-43" value="" style="endArrow=classic;startArrow=classic;html=1;rounded=0;entryX=-0.011;entryY=0.366;entryDx=0;entryDy=0;entryPerimeter=0;exitX=1;exitY=0.5;exitDx=0;exitDy=0;" parent="1" edge="1">
          <mxGeometry width="50" height="50" relative="1" as="geometry">
            <mxPoint x="773" y="245" as="sourcePoint" />
            <mxPoint x="838.0639999999999" y="244.0400000000002" as="targetPoint" />
          </mxGeometry>
        </mxCell>
        <mxCell id="OlUzO2p-UMLcqqp3qhSS-44" value="I2C1&lt;div&gt;SPI0&lt;/div&gt;" style="text;html=1;align=center;verticalAlign=middle;whiteSpace=wrap;rounded=0;" parent="1" vertex="1">
          <mxGeometry x="734" y="239" width="37" height="18" as="geometry" />
        </mxCell>
        <mxCell id="OlUzO2p-UMLcqqp3qhSS-45" value="&lt;font style=&quot;font-size: 12px;&quot;&gt;J7&lt;/font&gt;" style="whiteSpace=wrap;html=1;shadow=1;fontSize=18;fillColor=#bac8d3;strokeColor=#23445d;" parent="1" vertex="1">
          <mxGeometry x="841" y="343" width="46" height="41" as="geometry" />
        </mxCell>
        <mxCell id="OlUzO2p-UMLcqqp3qhSS-46" value="" style="endArrow=classic;startArrow=classic;html=1;rounded=0;entryX=-0.011;entryY=0.366;entryDx=0;entryDy=0;entryPerimeter=0;exitX=1;exitY=0.5;exitDx=0;exitDy=0;" parent="1" edge="1">
          <mxGeometry width="50" height="50" relative="1" as="geometry">
            <mxPoint x="773" y="365" as="sourcePoint" />
            <mxPoint x="838.0639999999999" y="364.0400000000002" as="targetPoint" />
          </mxGeometry>
        </mxCell>
        <mxCell id="OlUzO2p-UMLcqqp3qhSS-47" value="PWM[4,5,6]" style="text;html=1;align=center;verticalAlign=middle;whiteSpace=wrap;rounded=0;" parent="1" vertex="1">
          <mxGeometry x="719" y="357" width="36" height="18" as="geometry" />
        </mxCell>
        <mxCell id="OlUzO2p-UMLcqqp3qhSS-48" value="&lt;font style=&quot;font-size: 12px;&quot;&gt;J7&lt;/font&gt;" style="whiteSpace=wrap;html=1;shadow=1;fontSize=18;fillColor=#bac8d3;strokeColor=#23445d;" parent="1" vertex="1">
          <mxGeometry x="841" y="404" width="46" height="41" as="geometry" />
        </mxCell>
        <mxCell id="OlUzO2p-UMLcqqp3qhSS-49" value="" style="endArrow=classic;startArrow=classic;html=1;rounded=0;entryX=-0.011;entryY=0.366;entryDx=0;entryDy=0;entryPerimeter=0;exitX=1;exitY=0.5;exitDx=0;exitDy=0;" parent="1" edge="1">
          <mxGeometry width="50" height="50" relative="1" as="geometry">
            <mxPoint x="773" y="426" as="sourcePoint" />
            <mxPoint x="838.0639999999999" y="425.0400000000002" as="targetPoint" />
          </mxGeometry>
        </mxCell>
        <mxCell id="OlUzO2p-UMLcqqp3qhSS-50" value="TMS&lt;div&gt;TDI&lt;/div&gt;&lt;div&gt;TCK&lt;/div&gt;&lt;div&gt;TRST&lt;/div&gt;" style="text;html=1;align=right;verticalAlign=middle;whiteSpace=wrap;rounded=0;" parent="1" vertex="1">
          <mxGeometry x="732" y="419" width="36" height="18" as="geometry" />
        </mxCell>
        <mxCell id="OlUzO2p-UMLcqqp3qhSS-51" value="JTAG" style="text;html=1;align=center;verticalAlign=middle;whiteSpace=wrap;rounded=0;fontColor=#000000;" parent="1" vertex="1">
          <mxGeometry x="778" y="426" width="60" height="22" as="geometry" />
        </mxCell>
        <mxCell id="OlUzO2p-UMLcqqp3qhSS-52" value="&lt;font style=&quot;font-size: 12px;&quot;&gt;J13&lt;/font&gt;" style="whiteSpace=wrap;html=1;shadow=1;fontSize=18;fillColor=#bac8d3;strokeColor=#23445d;" parent="1" vertex="1">
          <mxGeometry x="462" y="381" width="46" height="33" as="geometry" />
        </mxCell>
        <mxCell id="OlUzO2p-UMLcqqp3qhSS-53" value="&lt;font style=&quot;font-size: 12px;&quot;&gt;J9&lt;/font&gt;" style="whiteSpace=wrap;html=1;shadow=1;fontSize=18;fillColor=#bac8d3;strokeColor=#23445d;" parent="1" vertex="1">
          <mxGeometry x="462" y="331" width="46" height="31" as="geometry" />
        </mxCell>
        <mxCell id="OlUzO2p-UMLcqqp3qhSS-54" value="&lt;font style=&quot;font-size: 12px;&quot;&gt;JP3&lt;/font&gt;" style="whiteSpace=wrap;html=1;shadow=1;fontSize=18;fillColor=#bac8d3;strokeColor=#23445d;direction=south;" parent="1" vertex="1">
          <mxGeometry x="304.5" y="492.5" width="33" height="33.5" as="geometry" />
        </mxCell>
        <mxCell id="OlUzO2p-UMLcqqp3qhSS-56" value="&lt;font style=&quot;font-size: 12px;&quot;&gt;USB Connector&lt;/font&gt;" style="whiteSpace=wrap;html=1;shadow=1;fontSize=18;fillColor=#b1ddf0;strokeColor=#10739e;" parent="1" vertex="1">
          <mxGeometry x="67" y="531" width="64" height="43" as="geometry" />
        </mxCell>
        <mxCell id="OlUzO2p-UMLcqqp3qhSS-58" value="&lt;font style=&quot;font-size: 12px;&quot;&gt;JP4&lt;/font&gt;" style="whiteSpace=wrap;html=1;shadow=1;fontSize=18;fillColor=#bac8d3;strokeColor=#23445d;direction=south;" parent="1" vertex="1">
          <mxGeometry x="224.5" y="534" width="33" height="33.5" as="geometry" />
        </mxCell>
        <mxCell id="OlUzO2p-UMLcqqp3qhSS-59" style="edgeStyle=elbowEdgeStyle;rounded=0;html=1;startArrow=none;startFill=0;jettySize=auto;orthogonalLoop=1;fontSize=18;elbow=vertical;fontColor=#FF0000;strokeColor=#FF3333;strokeWidth=2;exitX=0.992;exitY=0.456;exitDx=0;exitDy=0;exitPerimeter=0;" parent="1" source="OlUzO2p-UMLcqqp3qhSS-56" edge="1">
          <mxGeometry relative="1" as="geometry">
            <Array as="points">
              <mxPoint x="246" y="551" />
            </Array>
            <mxPoint x="132" y="558" as="sourcePoint" />
            <mxPoint x="222" y="551" as="targetPoint" />
          </mxGeometry>
        </mxCell>
        <mxCell id="OlUzO2p-UMLcqqp3qhSS-61" value="" style="endArrow=none;html=1;rounded=0;exitX=0.592;exitY=-0.005;exitDx=0;exitDy=0;exitPerimeter=0;strokeWidth=2;strokeColor=#FF0000;" parent="1" target="OlUzO2p-UMLcqqp3qhSS-62" edge="1">
          <mxGeometry width="50" height="50" relative="1" as="geometry">
            <mxPoint x="257.6650000000001" y="550.8320000000001" as="sourcePoint" />
            <mxPoint x="322" y="551" as="targetPoint" />
          </mxGeometry>
        </mxCell>
        <mxCell id="OlUzO2p-UMLcqqp3qhSS-62" value="" style="ellipse;whiteSpace=wrap;html=1;aspect=fixed;strokeColor=none;fillColor=#FF0000;" parent="1" vertex="1">
          <mxGeometry x="315" y="544" width="14" height="14" as="geometry" />
        </mxCell>
        <mxCell id="OlUzO2p-UMLcqqp3qhSS-63" value="&lt;div&gt;5V&lt;/div&gt;&lt;div&gt;Power&lt;/div&gt;&lt;div&gt;Only&lt;/div&gt;" style="text;html=1;align=center;verticalAlign=middle;whiteSpace=wrap;rounded=0;fontColor=#FF0000;" parent="1" vertex="1">
          <mxGeometry x="12" y="540" width="50" height="25" as="geometry" />
        </mxCell>
        <mxCell id="OlUzO2p-UMLcqqp3qhSS-65" value="" style="endArrow=classic;startArrow=classic;html=1;rounded=0;entryX=-0.011;entryY=0.366;entryDx=0;entryDy=0;entryPerimeter=0;" parent="1" edge="1">
          <mxGeometry width="50" height="50" relative="1" as="geometry">
            <mxPoint x="422" y="201" as="sourcePoint" />
            <mxPoint x="557.0639999999999" y="200.0400000000002" as="targetPoint" />
          </mxGeometry>
        </mxCell>
        <mxCell id="OlUzO2p-UMLcqqp3qhSS-38" value="&lt;font style=&quot;font-size: 12px;&quot;&gt;J3&lt;/font&gt;" style="whiteSpace=wrap;html=1;shadow=1;fontSize=18;fillColor=#bac8d3;strokeColor=#23445d;" parent="1" vertex="1">
          <mxGeometry x="462" y="188" width="46" height="28" as="geometry" />
        </mxCell>
        <mxCell id="OlUzO2p-UMLcqqp3qhSS-66" value="" style="endArrow=classic;startArrow=classic;html=1;rounded=0;entryX=-0.011;entryY=0.366;entryDx=0;entryDy=0;entryPerimeter=0;" parent="1" edge="1">
          <mxGeometry width="50" height="50" relative="1" as="geometry">
            <mxPoint x="422" y="269" as="sourcePoint" />
            <mxPoint x="557.0639999999999" y="268.0400000000002" as="targetPoint" />
          </mxGeometry>
        </mxCell>
        <mxCell id="OlUzO2p-UMLcqqp3qhSS-67" value="&lt;div&gt;5V Power, USB Signal&lt;/div&gt;" style="text;html=1;align=center;verticalAlign=middle;whiteSpace=wrap;rounded=0;fontColor=#FF0000;" parent="1" vertex="1">
          <mxGeometry x="246" y="13" width="150" height="25" as="geometry" />
        </mxCell>
        <mxCell id="LdwP-QBZLzDCBz-SF-kK-1" value="&lt;font style=&quot;font-size: 12px;&quot;&gt;J11&lt;/font&gt;" style="whiteSpace=wrap;html=1;shadow=1;fontSize=18;fillColor=#bac8d3;strokeColor=#23445d;" vertex="1" parent="1">
          <mxGeometry x="841" y="282" width="46" height="41" as="geometry" />
        </mxCell>
        <mxCell id="LdwP-QBZLzDCBz-SF-kK-2" value="" style="endArrow=classic;startArrow=classic;html=1;rounded=0;entryX=-0.011;entryY=0.366;entryDx=0;entryDy=0;entryPerimeter=0;exitX=1;exitY=0.5;exitDx=0;exitDy=0;" edge="1" parent="1">
          <mxGeometry width="50" height="50" relative="1" as="geometry">
            <mxPoint x="773" y="304" as="sourcePoint" />
            <mxPoint x="838.0639999999999" y="303.0400000000002" as="targetPoint" />
          </mxGeometry>
        </mxCell>
        <mxCell id="LdwP-QBZLzDCBz-SF-kK-3" value="UART1" style="text;html=1;align=center;verticalAlign=middle;whiteSpace=wrap;rounded=0;" vertex="1" parent="1">
          <mxGeometry x="731" y="298" width="37" height="18" as="geometry" />
        </mxCell>
        <mxCell id="LdwP-QBZLzDCBz-SF-kK-4" value="SPI3" style="text;html=1;align=center;verticalAlign=middle;whiteSpace=wrap;rounded=0;rotation=-90;" vertex="1" parent="1">
          <mxGeometry x="688" y="426" width="36" height="30" as="geometry" />
        </mxCell>
        <mxCell id="LdwP-QBZLzDCBz-SF-kK-5" value="&lt;font style=&quot;font-size: 12px;&quot;&gt;2 MB&lt;/font&gt;&lt;div&gt;&lt;font style=&quot;font-size: 12px;&quot;&gt;SPI Flash&lt;/font&gt;&lt;/div&gt;" style="whiteSpace=wrap;html=1;shadow=1;fontSize=18;fillColor=#647687;strokeColor=#314354;fontColor=#ffffff;" vertex="1" parent="1">
          <mxGeometry x="792" y="531" width="60" height="47" as="geometry" />
        </mxCell>
        <mxCell id="LdwP-QBZLzDCBz-SF-kK-6" value="" style="endArrow=classic;html=1;rounded=0;edgeStyle=elbowEdgeStyle;elbow=vertical;entryX=0.5;entryY=0;entryDx=0;entryDy=0;exitX=0;exitY=0.5;exitDx=0;exitDy=0;startArrow=classic;startFill=1;" edge="1" parent="1" source="LdwP-QBZLzDCBz-SF-kK-4" target="LdwP-QBZLzDCBz-SF-kK-5">
          <mxGeometry width="50" height="50" relative="1" as="geometry">
            <mxPoint x="672" y="448" as="sourcePoint" />
            <mxPoint x="722" y="398" as="targetPoint" />
          </mxGeometry>
        </mxCell>
        <mxCell id="RBv-ePs52zasYLE-lzvq-18" value="&lt;div style=&quot;font-size: 12px;&quot;&gt;&lt;font style=&quot;font-size: 12px;&quot;&gt;DC-DC&lt;/font&gt;&lt;/div&gt;&lt;div style=&quot;font-size: 12px;&quot;&gt;&lt;font style=&quot;font-size: 12px;&quot;&gt;&lt;font style=&quot;font-size: 12px;&quot;&gt;Module&lt;/font&gt;&lt;font style=&quot;font-size: 12px;&quot;&gt;&lt;br&gt;&lt;/font&gt;&lt;/font&gt;&lt;/div&gt;" style="whiteSpace=wrap;html=1;shadow=1;fontSize=18;fillColor=#bac8d3;strokeColor=#23445d;" parent="1" vertex="1">
          <mxGeometry x="609" y="541" width="64" height="50" as="geometry" />
        </mxCell>
        <mxCell id="LdwP-QBZLzDCBz-SF-kK-7" value="&lt;font style=&quot;font-size: 12px;&quot;&gt;JP1&lt;/font&gt;" style="whiteSpace=wrap;html=1;shadow=1;fontSize=18;fillColor=#bac8d3;strokeColor=#23445d;direction=south;" vertex="1" parent="1">
          <mxGeometry x="620.5" y="490" width="33" height="24" as="geometry" />
        </mxCell>
        <mxCell id="LdwP-QBZLzDCBz-SF-kK-9" value="&lt;font style=&quot;font-size: 12px;&quot;&gt;JP2&lt;/font&gt;" style="whiteSpace=wrap;html=1;shadow=1;fontSize=18;fillColor=#bac8d3;strokeColor=#23445d;direction=south;" vertex="1" parent="1">
          <mxGeometry x="549" y="490" width="33" height="24" as="geometry" />
        </mxCell>
      </root>
    </mxGraphModel>
  </diagram>
</mxfile>
